<?xml version="1.0" encoding="utf-8"?>
<!-- Generator: Adobe Illustrator 26.1.0, SVG Export Plug-In . SVG Version: 6.00 Build 0)  -->
<svg version="1.1" id="Layer_1" xmlns="http://www.w3.org/2000/svg" xmlns:xlink="http://www.w3.org/1999/xlink" x="0px" y="0px"
	 viewBox="0 0 31.72 30.68" style="enable-background:new 0 0 31.72 30.68;" xml:space="preserve">
<style type="text/css">
	.st0{fill:#FF0000;}
</style>
<path class="st0" d="M15.6,30.68c-0.16-0.77-0.28-1.53-0.47-2.27c-0.5-1.89-1.53-3.46-3-4.71c-1.6-1.35-3.27-2.63-4.94-3.89
	c-2.46-1.86-4.48-4.09-5.89-6.84c-0.67-1.3-1.19-2.66-1.28-4.13c-0.16-2.62,1-4.61,3.15-6.01c2.28-1.48,4.64-1.43,6.96-0.07
	c2.05,1.2,3.57,2.91,4.78,4.93c0.07,0.12,0.18,0.22,0.27,0.33c0.03-0.02,0.06-0.04,0.09-0.05c0-0.07,0-0.15,0.01-0.22
	c0.05-0.35,0.03-0.74,0.18-1.04c1.08-2.1,2.44-3.96,4.46-5.25c2.36-1.51,4.89-1.93,7.52-0.85c2.33,0.95,3.6,2.83,4.09,5.24
	c0.41,2,0.09,3.96-0.49,5.88c-0.96,3.18-2.55,6.04-4.43,8.76c-2.85,4.12-6.39,7.51-10.73,10.04C15.79,30.58,15.69,30.63,15.6,30.68z
	"/>
</svg>
