<svg width="27" height="27" viewBox="0 0 27 27" fill="none" xmlns="http://www.w3.org/2000/svg">
<g clipPath="url(#clip0_376_3430)">
<path d="M17.8203 13.4997C17.8203 15.8856 15.8863 17.8196 13.5003 17.8196C11.1144 17.8196 9.18039 15.8856 9.18039 13.4997C9.18039 11.1137 11.1144 9.17971 13.5003 9.17971C15.885 9.18244 17.8176 11.115 17.8203 13.4997ZM27 7.55956V19.4398C26.9952 23.6133 23.6133 26.9952 19.4398 27H7.56024C3.38666 26.9952 0.00476515 23.6133 0 19.4398V7.56024C0.00476515 3.38666 3.38666 0.00476515 7.56024 0H19.4404C23.614 0.00476515 26.9959 3.38666 27.0007 7.56024L27 7.55956ZM19.9803 13.4997C19.9803 9.92103 17.079 7.01974 13.5003 7.01974C9.92172 7.01974 7.02042 9.92103 7.02042 13.4997C7.02042 17.0783 9.92172 19.9796 13.5003 19.9796C17.0776 19.9755 19.9762 17.0769 19.9803 13.4997ZM22.1402 6.47992C22.1402 5.58543 21.4152 4.85977 20.5201 4.85977C19.6249 4.85977 18.8999 5.58475 18.8999 6.47992C18.8999 7.37509 19.6249 8.10007 20.5201 8.10007C21.4152 8.10007 22.1402 7.37509 22.1402 6.47992Z" fill="black"/>
</g>
<defs>
<clipPath id="clip0_376_3430">
<rect width="27" height="27" fill="white"/>
</clipPath>
</defs>
</svg>
