<svg width="162" height="72" viewBox="0 0 162 72" fill="none" xmlns="http://www.w3.org/2000/svg">
<g style="mix-blend-mode:difference" clipPath="url(#clip0_349_2896)">
<path d="M31.7343 20.0062C31.7343 20.0062 35.1569 21.4921 36.8528 12.8349C38.3147 5.36905 32.2041 1.03683 28.5275 0.196577C26.7047 -0.219913 22.1267 0.382088 19.4568 1.78251C13.172 5.07806 6.67505 20.1062 5.26211 24.2348C1.15207 36.2566 0.0420351 43.7552 0.000318074 53.1835C-0.0468403 63.7958 5.15872 68.9738 9.70407 70.507C16.5112 72.8022 22.6146 71.8656 25.2446 70.5124C29.565 68.2899 31.9411 66.3111 34.1865 62.7119C36.8165 58.496 37.8177 54.7276 39.3649 50.1608C41.4725 43.9389 41.5197 41.8201 42.4683 39.6722C45.9018 31.908 47.3002 38.2808 47.5741 34.3105C47.9731 28.5433 42.5408 40.0105 41.4362 31.2242C41.0862 28.4306 37.7651 30.1129 36.1291 31.2605C33.8818 32.8356 31.9139 34.8398 33.7911 36.4239C34.7778 37.2569 35.1279 37.2351 35.3927 36.8004C36.4374 35.0871 36.5825 35.0108 37.0904 34.316C37.5983 33.6212 39.6188 31.2951 40.3135 34.0577C41.2639 37.8298 39.5444 44.3427 38.9314 46.7088C38.2367 49.3878 36.5499 56.4209 31.4967 61.4024C27.0311 65.8055 22.5928 67.1441 19.0215 66.895C14.1896 66.5567 13.912 65.8928 14.4471 61.1259C14.8389 57.634 12.4792 53.1726 9.0638 54.6221C7.0632 55.4715 6.43381 54.7404 6.21434 52.9635C5.67021 48.584 4.91205 45.4303 6.79657 32.0044C7.79596 24.8841 11.2059 15.2557 14.9894 9.5194C15.6932 8.4518 17.9241 4.27418 21.1926 2.199C23.9241 0.463931 27.6442 2.40634 28.5856 2.94468C32.8824 5.40361 34.6871 9.11564 34.9374 11.0908C36.5952 24.1766 30.8238 9.01197 27.2379 13.9898C25.7724 16.025 26.5215 17.8874 27.4755 18.4003C29.4217 19.4479 31.7343 20.0135 31.7343 20.0135V20.0062Z" fill="#FF0000"/>
<path d="M127.465 24.3819C127.465 24.3819 115.98 13.1694 124.948 3.51011C129.421 -1.3059 133.141 -0.434724 134.804 1.78959C137.47 5.3543 134.965 9.90841 133.928 12.8293C131.96 18.3764 123.321 34.4649 127.405 32.2661C134.463 28.4668 130.966 62.528 132.312 67.2385C133.335 70.8196 126.977 72.3855 125.655 71.7453C124.721 71.2925 133.422 28.6304 127.732 34.2049C121.895 39.9248 127.083 21.7647 131.349 12.6583C132.727 9.71744 133.679 8.10423 132.654 4.76503C131.561 1.20395 126.061 3.23548 124.15 6.42917C121.746 10.4431 122.695 12.431 123.047 14.7135C123.493 17.6035 125.864 18.8202 125.864 18.8202L127.463 24.3801L127.465 24.3819Z" fill="#FF0000"/>
<path d="M72.1636 13.9915C72.5571 12.8857 70.591 0.358316 61.4296 0.536552C52.2682 0.712969 50.614 18.4493 56.623 22.7506C59.2784 24.6511 61.6509 28.8342 60.354 29.5108C58.1466 30.662 55.464 30.582 54.5027 31.575C53.5396 32.5699 53.2258 33.2265 52.9229 34.5341C52.62 35.8418 52.6708 36.5165 51.9979 37.4805C49.2428 41.4271 46.0015 45.8848 44.0644 50.3207C41.906 55.2622 39.3304 60.6893 43.3062 67.3059C47.2839 73.9242 54.9362 72.3601 60.7548 66.9312C61.8885 65.8727 64.64 63.2592 64.9864 58.7415C65.3709 53.7545 66.1817 51.1755 69.8981 53.8854C72.2851 55.626 72.9616 58.0503 76.1738 57.3483C77.8044 56.9918 79.1702 54.5238 80.1315 53.529C81.9036 51.6975 82.8141 50.6008 81.013 48.3074C80.0064 47.0252 77.4217 44.3862 74.8951 52.6069C73.8794 55.9133 74.4435 54.2328 70.6073 51.7612C67.5039 49.7642 65.5505 51.8812 64.3915 55.004C63.617 57.0901 63.5571 58.8542 60.9743 61.3804C58.3353 63.963 56.4634 65.0452 54.1781 65.4162C51.8945 65.7854 50.1279 64.8961 48.8981 63.241C46.2754 59.7072 44.2549 53.3998 49.4713 44.368C51.3721 41.0779 54.6406 34.5396 58.2464 33.8776C62.5396 33.0882 63.0765 35.6763 65.7482 34.505C68.4199 33.3338 67.4894 31.1513 66.296 30.1819C64.6726 28.8651 64.348 32.7536 60.5463 26.0843C59.2149 23.7509 53.1805 12.3456 61.1992 5.42349C65.2059 1.96608 71.0408 6.53473 66.5281 10.1995C63.2343 12.8767 63.6152 11.8818 63.9671 13.1767C64.6182 15.5684 66.5372 17.4271 66.9943 17.3471C67.7415 17.2143 71.8588 14.8573 72.1672 13.9934L72.1636 13.9915Z" fill="#FF0000"/>
<path d="M65.7733 67.8898C67.2407 52.2432 74.0659 66.0328 78.7963 64.0159C81.74 62.7609 84.5206 57.1301 84.633 54.3166C84.7908 50.3808 84.4517 36.5421 84.2648 33.1083C83.9946 28.105 83.5774 21.794 83.3833 14.75C83.2346 9.37931 79.3549 2.85734 83.9964 1.7661C87.9486 0.838543 93.6602 -0.42002 91.598 3.43933C89.8767 6.66031 87.9287 13.2077 90.526 11.9656C92.9764 10.7925 94.7413 8.20623 97.0012 6.99313C99.2612 5.78004 108.441 4.75609 109.718 11.3708C110.995 17.9874 109.825 29.831 104.721 29.5582C99.5913 29.2835 97.7902 31.8861 97.8809 32.8883C97.9716 33.8904 117.758 71.4363 119.412 65.8164C120.847 60.944 114.985 59.0616 117.742 57.3757C118.554 56.8792 120.06 55.757 121.25 57.6703C122.835 60.2202 123.227 67.3005 121.23 69.3393C119.06 71.5527 115.268 71.851 113.973 70.7779C112.143 69.2593 109.999 64.3851 108.778 62.1389C106.629 58.1814 97.2261 33.3029 96.4934 32.6955C95.7606 32.088 94.5381 33.5448 93.1034 32.6627C91.0339 31.3933 90.9686 27.8067 93.5351 26.2299C96.1016 24.653 96.7128 28.6561 97.7521 28.8998C98.7896 29.1435 107.329 29.0998 107.079 17.9419C106.91 10.3814 101.347 6.32748 96.8253 8.75367C90.5641 12.1129 96.6294 14.0953 95.3452 14.8828C91.7159 17.1126 88.7159 14.0971 88.4456 13.4842C87.1651 10.5706 89.9764 7.96252 88.7866 6.04921C87.5968 4.13591 86.2237 3.92311 85.734 5.98738C84.6548 10.5306 87.526 49.1168 86.4577 58.627C85.5526 66.7003 85.5254 67.4096 83.0097 69.6776C79.4801 72.8622 76.5018 71.9092 75.1143 71.7273C73.4093 71.5036 65.6282 69.4248 65.7715 67.8916L65.7733 67.8898Z" fill="#FF0000"/>
<path d="M160.525 53.4328C157.975 59.8202 160.471 64.2488 159.343 67.4097C158.829 68.8447 157.865 68.5846 157.166 67.1242C156.466 65.6637 158.681 64.0232 157.995 61.8389C157.85 61.3788 156.056 59.26 153.176 60.293C153.024 60.3476 153.771 60.3403 153.635 62.1627C153.566 63.0866 154.875 62.4428 156.718 61.7989C158.672 61.1169 155.982 66.3476 154.953 68.7647C154.397 70.0723 158.169 70.8926 160.253 70.5616C163.638 70.0251 159.891 62.5701 160.206 58.7198C160.331 57.2048 160.46 56.7319 160.572 55.7426C160.837 53.4382 161.365 53.2636 162 50.6792C162 50.6792 160.823 52.6889 160.525 53.4309V53.4328Z" fill="#FF0000"/>
<path d="M150.114 70.463C149.432 69.4173 150.608 63.3754 149.204 61.1129C148.409 59.8325 152.726 59.9817 152.908 59.7998C152.984 59.7234 154.538 57.0335 154.177 57.4354C153.368 58.3357 147.287 60.58 146.741 60.7092C145.652 60.9638 144.421 60.52 144.807 59.5324C144.934 59.2087 143.48 59.5052 143.365 59.7343C142.582 61.2948 145.03 61.8932 147.189 60.982C151.025 59.3615 145.01 71.6543 145.634 71.7798L150.113 70.463" fill="#FF0000"/>
</g>
<defs>
<clipPath id="clip0_349_2896">
<rect width="162" height="72" fill="white"/>
</clipPath>
</defs>
</svg>
