<svg width="27" height="27" viewBox="0 0 27 27" fill="none" xmlns="http://www.w3.org/2000/svg">
<g clipPath="url(#clip0_376_3428)">
<path d="M13.5935 0.000884369C21.0696 0.0862266 27.0844 6.18459 26.9991 13.5931C26.9137 21.069 20.8153 27.0838 13.4065 26.9991C5.93216 26.9137 -0.0838735 20.8142 0.000884721 13.4068C0.0868452 5.93217 6.18643 -0.0838569 13.5935 0.000884369ZM14.6232 10.4421C15.0584 10.3898 15.4419 10.3063 15.8254 10.3063C16.3664 10.3063 16.6544 10.5971 16.7049 11.132C16.7223 11.3183 16.7337 11.5227 16.6772 11.6958C16.5323 12.1399 16.3815 12.5877 16.1717 13.003C15.7839 13.771 15.3421 14.5115 14.7007 15.1041C14.3581 15.4208 14.0762 15.3925 13.8501 14.9821C13.6596 14.6359 13.4883 14.2602 13.4059 13.8762C13.1144 12.5185 12.8787 11.1495 12.5932 9.79C12.479 9.24609 12.3479 8.69257 12.1231 8.18833C11.8226 7.51461 11.2587 7.11133 10.4947 7.21711C10.1045 7.2712 9.68737 7.43347 9.37238 7.66786C8.5795 8.25624 7.83411 8.90893 7.07729 9.54419C6.71301 9.8501 6.36557 10.1758 6.00129 10.501C6.24955 10.8201 6.47437 11.108 6.7082 11.4085C6.97029 11.2318 7.19812 11.0713 7.43376 10.9223C7.91706 10.617 8.23145 10.656 8.50556 11.1537C8.7923 11.6753 9.05258 12.2259 9.2221 12.7944C9.67354 14.3077 10.0655 15.8385 10.4911 17.3596C10.6924 18.0796 11.0128 18.7425 11.5022 19.3159C11.9121 19.7961 12.4044 20.0491 13.0597 19.9523C13.6385 19.8664 14.1501 19.6344 14.6298 19.3177C15.719 18.5995 16.6039 17.6625 17.4178 16.6576C18.5774 15.2255 19.6672 13.7446 20.4372 12.0564C20.9031 11.0347 21.1183 9.97451 20.9296 8.84583C20.7582 7.81931 20.1613 7.16843 19.1604 7.05123C17.9624 6.9112 16.8726 7.17564 15.9853 8.0489C15.3067 8.71721 14.9027 9.53998 14.6226 10.4415L14.6232 10.4421Z" fill="black"/>
</g>
<defs>
<clipPath id="clip0_376_3428">
<rect width="27" height="27" fill="white"/>
</clipPath>
</defs>
</svg>
